<mxfile host="app.diagrams.net" modified="2021-07-21T19:01:14.375Z" agent="5.0 (Macintosh; Intel Mac OS X 10_15_4) AppleWebKit/605.1.15 (KHTML, like Gecko) Version/13.1 Safari/605.1.15" etag="YU_YHNHKi00h2aUYBOiZ" version="14.9.1" type="github">
  <diagram id="jXdP7-E08VQG8q39Ei_y" name="Page-1">
    <mxGraphModel dx="1666" dy="1071" grid="1" gridSize="10" guides="1" tooltips="1" connect="1" arrows="1" fold="1" page="1" pageScale="1" pageWidth="827" pageHeight="1169" math="0" shadow="0">
      <root>
        <mxCell id="0" />
        <mxCell id="1" parent="0" />
        <mxCell id="hGmCW8Nn7ZMroIDvWrau-2" value="GENERATE COUNTRY NAME TO CODE" style="rounded=0;whiteSpace=wrap;html=1;" vertex="1" parent="1">
          <mxGeometry x="40" y="40" width="240" height="70" as="geometry" />
        </mxCell>
        <mxCell id="hGmCW8Nn7ZMroIDvWrau-3" value="OPEN JSON FILE PATH" style="rhombus;whiteSpace=wrap;html=1;" vertex="1" parent="1">
          <mxGeometry x="73.75" y="118" width="172.5" height="80" as="geometry" />
        </mxCell>
        <mxCell id="hGmCW8Nn7ZMroIDvWrau-4" value="CREATE AN EMPTY DICT" style="rhombus;whiteSpace=wrap;html=1;" vertex="1" parent="1">
          <mxGeometry x="73.75" y="206" width="172.5" height="80" as="geometry" />
        </mxCell>
        <mxCell id="hGmCW8Nn7ZMroIDvWrau-6" value="CREATE A FOR LOOP &lt;br&gt;" style="shape=parallelogram;perimeter=parallelogramPerimeter;whiteSpace=wrap;html=1;fixedSize=1;" vertex="1" parent="1">
          <mxGeometry x="62.5" y="293" width="195" height="60" as="geometry" />
        </mxCell>
        <mxCell id="hGmCW8Nn7ZMroIDvWrau-7" value="GENERATE COUNTRY CODE TO LNG" style="rounded=0;whiteSpace=wrap;html=1;" vertex="1" parent="1">
          <mxGeometry x="310" y="40" width="240" height="70" as="geometry" />
        </mxCell>
        <mxCell id="hGmCW8Nn7ZMroIDvWrau-8" value="OPEN JSON FILE PATH" style="rhombus;whiteSpace=wrap;html=1;" vertex="1" parent="1">
          <mxGeometry x="343.75" y="118" width="172.5" height="80" as="geometry" />
        </mxCell>
        <mxCell id="hGmCW8Nn7ZMroIDvWrau-9" value="CREATE AN EMPTY DICT" style="rhombus;whiteSpace=wrap;html=1;" vertex="1" parent="1">
          <mxGeometry x="343.75" y="213" width="172.5" height="80" as="geometry" />
        </mxCell>
        <mxCell id="hGmCW8Nn7ZMroIDvWrau-10" value="CREATE A FOR LOOP&amp;nbsp;" style="shape=parallelogram;perimeter=parallelogramPerimeter;whiteSpace=wrap;html=1;fixedSize=1;" vertex="1" parent="1">
          <mxGeometry x="332.5" y="303" width="195" height="60" as="geometry" />
        </mxCell>
        <mxCell id="hGmCW8Nn7ZMroIDvWrau-12" value="CREATE 2 VARIABLES &amp;nbsp;ASSIGNED TO THE METHOD(FILE PATH)" style="shape=parallelogram;perimeter=parallelogramPerimeter;whiteSpace=wrap;html=1;fixedSize=1;" vertex="1" parent="1">
          <mxGeometry x="585" y="40" width="195" height="60" as="geometry" />
        </mxCell>
        <mxCell id="hGmCW8Nn7ZMroIDvWrau-13" value="ASK INPUT FROM USER" style="rhombus;whiteSpace=wrap;html=1;" vertex="1" parent="1">
          <mxGeometry x="596.25" y="113" width="172.5" height="80" as="geometry" />
        </mxCell>
        <mxCell id="hGmCW8Nn7ZMroIDvWrau-14" value="CREATE IF STATEMENT&lt;br&gt;&amp;nbsp;&amp;nbsp;&lt;br&gt;IF INPUT IS VALID ( LNG) PRINT THE COUNTRY NAMES&amp;nbsp;&amp;nbsp;" style="shape=parallelogram;perimeter=parallelogramPerimeter;whiteSpace=wrap;html=1;fixedSize=1;" vertex="1" parent="1">
          <mxGeometry x="550" y="201" width="265" height="114" as="geometry" />
        </mxCell>
      </root>
    </mxGraphModel>
  </diagram>
</mxfile>
